<svg xmlns="http://www.w3.org/2000/svg" width="105.373" height="83.969" viewBox="0 0 105.373 83.969"><g id="plan_997661" transform="translate(0 -52)"><g id="Group_131390" data-name="Group 131390" transform="translate(0 52)"><g id="Group_131389" data-name="Group 131389"><path id="Path_135571" data-name="Path 135571" d="M104.582,80.366a2.67,2.67,0,0,0-1.9-.785h-.007l-31.71.081A29.158,29.158,0,0,0,41.881,52H37.633a3.267,3.267,0,0,0-3.263,3.263V79.756l-9.058.023A12.653,12.653,0,0,0,12.49,67.231,12.789,12.789,0,0,0,0,80.052v43.259c0,.018,0,.034,0,.051a12.653,12.653,0,0,0,12.653,12.606h90.027a2.692,2.692,0,0,0,2.689-2.689V82.27A2.671,2.671,0,0,0,104.582,80.366Zm-67.126-25.1a.176.176,0,0,1,.176-.176h4.248A26.067,26.067,0,0,1,67.871,79.578H37.457Zm64.829,77.618H12.657a9.568,9.568,0,0,1-9.567-9.575s0-.255,0-.369a9.626,9.626,0,0,1,4.176-7.519h0a9.559,9.559,0,0,1,14.956,7.894,1.544,1.544,0,1,0,3.087,0V106.525a1.544,1.544,0,0,0-3.087,0v8.5q-.375-.431-.793-.833a12.621,12.621,0,0,0-15.913-1.319,12.75,12.75,0,0,0-2.435,2.183v-35a9.69,9.69,0,0,1,9.442-9.735h.128a9.57,9.57,0,0,1,9.569,9.57V100.35a1.544,1.544,0,1,0,3.087,0V82.867l76.971-.2Z" transform="translate(0 -52)" fill="#fff"></path></g></g><g id="Group_131392" data-name="Group 131392" transform="translate(57.831 85.958)"><g id="Group_131391" data-name="Group 131391"><path id="Path_135572" data-name="Path 135572" d="M318.334,217H285.021A4.025,4.025,0,0,0,281,221.021v25.093a4.025,4.025,0,0,0,4.021,4.021h32.914a4.025,4.025,0,0,0,4.021-4.021V220.621A3.625,3.625,0,0,0,318.334,217Zm.534,29.114a.935.935,0,0,1-.934.934H285.021a.935.935,0,0,1-.934-.934V221.021a.935.935,0,0,1,.934-.934h12.65V238.1a1.543,1.543,0,0,0,1.544,1.544h19.654Zm0-9.563H300.757V220.087h17.577a.535.535,0,0,1,.534.534Z" transform="translate(-281 -217)" fill="#fff"></path></g></g><g id="Group_131394" data-name="Group 131394" transform="translate(47.335 88.325)"><g id="Group_131393" data-name="Group 131393"><path id="Path_135573" data-name="Path 135573" d="M235.906,252.415l-.143.143v-18.89l.143.143a1.544,1.544,0,0,0,2.183-2.183l-2.675-2.675a1.544,1.544,0,0,0-2.183,0l-2.778,2.778a1.544,1.544,0,0,0,2.183,2.183l.041-.041v18.478l-.041-.041a1.544,1.544,0,0,0-2.183,2.183l2.778,2.778a1.544,1.544,0,0,0,2.183,0l2.675-2.675a1.544,1.544,0,0,0-2.183-2.183Z" transform="translate(-230 -228.501)" fill="#fff"></path></g></g><g id="Group_131396" data-name="Group 131396" transform="translate(64.52 121.357)"><g id="Group_131395" data-name="Group 131395"><path id="Path_135574" data-name="Path 135574" d="M342.273,392.23l-2.778-2.778a1.544,1.544,0,0,0-2.183,2.183l.04.04H318.873l.04-.04a1.544,1.544,0,0,0-2.183-2.183l-2.778,2.778a1.544,1.544,0,0,0,0,2.183l2.675,2.675a1.544,1.544,0,0,0,2.183-2.183l-.143-.143h18.89l-.143.143a1.544,1.544,0,0,0,2.183,2.183l2.675-2.675A1.544,1.544,0,0,0,342.273,392.23Z" transform="translate(-313.5 -389)" fill="#fff"></path></g></g><g id="Group_131398" data-name="Group 131398" transform="translate(41.573 59.446)"><g id="Group_131397" data-name="Group 131397"><path id="Path_135575" data-name="Path 135575" d="M222.813,102.312a21.959,21.959,0,0,0-19.176-14.128A1.543,1.543,0,0,0,202,89.724v13.135a1.543,1.543,0,0,0,1.544,1.544h5.4a1.544,1.544,0,0,0,0-3.087h-3.859V91.436a18.88,18.88,0,0,1,13.9,9.879h-3.864a1.544,1.544,0,0,0,0,3.087h6.249a1.544,1.544,0,0,0,1.443-2.091Z" transform="translate(-202.001 -88.181)" fill="#fff"></path></g></g><g id="Group_131400" data-name="Group 131400" transform="translate(32.106 88.222)"><g id="Group_131399" data-name="Group 131399"><path id="Path_135576" data-name="Path 135576" d="M164.953,232.734l-3.087-4.116a1.544,1.544,0,0,0-2.47,0l-3.087,4.116a1.543,1.543,0,0,0-.309.926v31.592a3.708,3.708,0,0,0,3.7,3.7h1.853a3.708,3.708,0,0,0,3.7-3.7V233.66A1.543,1.543,0,0,0,164.953,232.734Zm-2.778,32.518a.618.618,0,0,1-.617.617H159.7a.618.618,0,0,1-.617-.617v-4.065h3.087Zm0-7.152h-3.087V234.174l1.544-2.058,1.544,2.058Z" transform="translate(-156 -228)" fill="#fff"></path></g></g></g></svg>