<svg xmlns="http://www.w3.org/2000/svg" id="Layer_1" data-name="Layer 1" viewBox="0 0 593.06 188.64"><defs><style>      .cls-1 {        fill-rule: evenodd;      }      .cls-1, .cls-2 {        fill: #38b77a;      }      .cls-1, .cls-2, .cls-3 {        stroke-width: 0px;      }      .cls-3 {        fill: #fff;      }    </style></defs><path class="cls-1" d="M85.76,62.85c0-15.42-6.03-28.86-17.29-28.86s-3.31,24.83-16.68,27.92c-24.84,5.75-24.92,18.05,15.59,29.44,10.93,3.07,18.39-13.08,18.39-28.5Z"></path><path class="cls-2" d="M412.32,76.8c-.41.74-.33,1.73.33,2.38,2.3,2.22,7.4,7.31,8.71,9.78,1.64,3.2,3.12,10.35,2.96,13.89-.16,3.45-2.38,10.27-4.27,13.15-1.89,2.79-6.99,7.48-10.03,8.96-2.88,1.48-9.53,2.88-12.74,2.71-3.12-.16-9.37-2.22-12-3.94-2.55-1.73-6.82-6.41-8.14-9.2-1.32-2.63-2.55-8.71-2.38-11.67.16-2.88,2.05-8.55,3.7-10.93,1.56-2.3,5.84-6.08,8.38-7.31.66-.33,1.81-.66,3.04-.9,4.36-.9,7.48-4.77,7.48-9.28,0-6.33-6.08-10.93-12.16-9.04-3.21.99-6.16,1.97-7.73,2.96-4.36,2.71-11.75,10.35-13.89,14.95-2.3,4.52-5.01,14.54-4.68,19.56.33,4.93,3.21,14.63,5.75,18.82,2.55,4.11,9.86,10.85,14.14,13.06,4.19,2.22,13.73,4.35,18.41,4.19,4.6-.16,13.73-3.04,17.67-5.51,3.86-2.38,10.19-9.28,12.25-13.31,2.05-3.94,4.03-12.82,3.86-17.25-.16-4.35-2.88-12.9-5.18-16.52-1.64-2.63-7.73-7.64-10.68-10.02-.9-.82-2.22-.57-2.79.49h0Z"></path><path class="cls-3" d="M50.26,72.05v-2.96c10.21-.89,16.27-8.43,17.01-25.75h3.11v24.41h19.98v4.29h-19.98v53.41c0,5.47,3.55,8.29,9.62,8.29,4.59,0,9.47-3.26,13.17-7.69l1.78,1.33c-4.88,9.03-11.1,12.72-18.94,12.72-8.43,0-14.5-5.33-14.5-16.72v-51.34h-11.24Z"></path><path class="cls-3" d="M176.02,132.86c-3.11,4.14-6.07,7.25-11.84,7.25-6.66,0-7.99-4.88-7.99-10.06-6.21,5.77-13.32,10.06-25.3,10.06-14.35,0-20.86-7.54-20.86-17.16,0-13.17,15.39-23.23,46.16-27.96v-10.5c0-8.88-4.29-14.8-13.17-14.8-11.24,0-15.68,3.11-18.34,10.65-1.18,3.26-2.81,6.21-6.51,6.21s-5.92-2.37-5.92-6.36c0-7.4,12.13-14.06,31.52-14.06,12.87,0,21.3,6.81,21.3,19.68v40.98c0,4.44.44,7.99,2.81,7.99,1.92,0,4-.59,6.81-3.4l1.33,1.48ZM156.2,98.98c-19.82,2.22-36.4,10.36-36.4,23.67,0,6.66,5.03,11.54,13.91,11.54,10.8,0,16.28-2.51,22.49-8.43v-26.78Z"></path><path class="cls-3" d="M261.1,137c-7.84.44-11.24.74-18.94,1.48v-6.51c-3.25,3.99-9.91,8.14-21.01,8.14-21.01,0-31.07-18.2-31.07-36.84s9.32-37.14,31.07-37.14c11.84,0,17.16,4,21.3,8.14v-28.11c0-5.03-2.51-6.66-11.69-6.66l-.74-2.07,21.3-7.25v94.25c0,6.36,2.96,9.47,9.76,9.47v3.11ZM242.45,79.75c-3.99-5.47-8.73-8.58-18.34-8.58-17.16,0-24.27,15.98-24.27,32.11s7.1,31.81,24.27,31.81c11.98,0,15.53-5.33,18.34-8.29v-47.05Z"></path><path class="cls-3" d="M272.79,158.61v-3.7c7.4,0,9.76-2.22,9.76-8.58v-65.4c0-4.59-2.22-6.51-9.17-6.51l-.59-2.22,18.64-6.07v7.84c4.29-4.44,10.21-7.84,21.3-7.84,21.45,0,30.92,17.61,30.92,35.95s-9.47,35.66-30.92,35.66c-11.1,0-17.16-3.55-21.3-7.84v16.42c0,6.36,3.55,8.58,9.91,8.58v3.7h-28.56ZM291.43,124.13c3.11,4.14,7.25,8.58,18.2,8.58,17.16,0,24.12-14.8,24.12-30.63s-6.95-30.92-24.12-30.92c-8.43,0-13.76,2.37-18.2,8.28v44.68Z"></path><path class="cls-3" d="M446.79,137.74v-3.7c7.25,0,9.76-2.81,9.76-9.02V45.86c0-4.44-2.22-6.95-9.76-6.95l-.59-2.07,19.24-6.81v94.99c0,6.21,2.96,9.02,10.36,9.02v3.7h-29Z"></path><path class="cls-3" d="M501.38,100.61c0,25.74,12.87,34.33,27.08,34.33,11.54,0,20.42-4.73,27.82-14.06l2.07,1.78c-6.51,9.62-15.24,17.46-31.96,17.46-20.57,0-34.47-14.79-34.47-37.14,0-20.56,13.32-36.84,33.73-36.84s31.66,12.58,31.66,34.47h-55.93ZM547.69,96.46c-.89-18.49-8.88-26.78-22.19-26.78-12.58,0-23.23,11.39-24.12,26.78h46.31Z"></path></svg>