<svg xmlns="http://www.w3.org/2000/svg" width="89.786" height="89.786" viewBox="0 0 89.786 89.786"><g id="trust_11933361" transform="translate(-0.001)"><path id="Path_135577" data-name="Path 135577" d="M25.665,86.08H41.226a13.335,13.335,0,0,0,11.689-7.015h4.41A13.335,13.335,0,0,0,69.014,86.08H84.575a13.263,13.263,0,1,0,0-26.526H69.014a13.336,13.336,0,0,0-11.689,7.015h-4.41a13.335,13.335,0,0,0-11.689-7.015H25.665a13.263,13.263,0,0,0,0,26.526Zm15.56-10.522c-1.974,0-3.641-1.256-3.641-2.741s1.666-2.739,3.637-2.741H69.038c1.961.01,3.618,1.265,3.618,2.741s-1.662,2.736-3.629,2.741Zm-6.423,0H25.665a2.741,2.741,0,1,1,0-5.483H34.8a5.539,5.539,0,0,0,0,5.483Zm40.634-5.482h9.14a2.741,2.741,0,0,1,0,5.483H75.437a5.528,5.528,0,0,0,0-5.483Zm-6.422-7.015H84.575a9.756,9.756,0,0,1,0,19.512H69.014a9.793,9.793,0,0,1-7.474-3.507H84.575a6.249,6.249,0,0,0,0-12.5H61.54A9.794,9.794,0,0,1,69.014,63.061Zm-43.349,0H41.226A9.793,9.793,0,0,1,48.7,66.569H25.665a6.249,6.249,0,0,0,0,12.5H48.7a9.793,9.793,0,0,1-7.474,3.507H25.665a9.756,9.756,0,0,1,0-19.512Z" transform="translate(-10.226 -49.11)" fill="#fff"></path><path id="Path_135578" data-name="Path 135578" d="M247.755,7.891a1.754,1.754,0,0,0,1.754-1.754V1.754a1.754,1.754,0,1,0-3.507,0V6.138A1.754,1.754,0,0,0,247.755,7.891Z" transform="translate(-202.861)" fill="#fff"></path><path id="Path_135579" data-name="Path 135579" d="M284.435,15.623a1.752,1.752,0,0,0,2.285-.965L288.1,11.25a1.754,1.754,0,0,0-3.249-1.32l-1.385,3.408A1.753,1.753,0,0,0,284.435,15.623Z" transform="translate(-233.653 -7.286)" fill="#fff"></path><path id="Path_135580" data-name="Path 135580" d="M202.276,14.658a1.754,1.754,0,0,0,3.249-1.32L204.141,9.93a1.754,1.754,0,0,0-3.249,1.32Z" transform="translate(-165.555 -7.286)" fill="#fff"></path><path id="Path_135581" data-name="Path 135581" d="M246,227.127v4.384a1.754,1.754,0,0,0,3.507,0v-4.384a1.754,1.754,0,0,0-3.507,0Z" transform="translate(-202.861 -185.851)" fill="#fff"></path><path id="Path_135582" data-name="Path 135582" d="M284.435,222.226a1.754,1.754,0,0,0-.965,2.285l1.385,3.408a1.754,1.754,0,0,0,3.249-1.32l-1.385-3.408A1.754,1.754,0,0,0,284.435,222.226Z" transform="translate(-233.653 -183.149)" fill="#fff"></path><path id="Path_135583" data-name="Path 135583" d="M202.275,223.19,200.89,226.6a1.754,1.754,0,1,0,3.249,1.32l1.385-3.408a1.754,1.754,0,0,0-3.249-1.32Z" transform="translate(-165.554 -183.149)" fill="#fff"></path><path id="Path_135584" data-name="Path 135584" d="M79.868,314.724a9.841,9.841,0,1,0-12.428,0,16.483,16.483,0,0,0-8.166,7.858,16.482,16.482,0,0,0-8.166-7.858,9.841,9.841,0,1,0-12.428,0,16.483,16.483,0,0,0-8.166,7.858,16.483,16.483,0,0,0-8.166-7.858,9.841,9.841,0,1,0-12.428,0A16.774,16.774,0,0,0,0,330.165v3a1.754,1.754,0,0,0,1.754,1.754H88.033a1.754,1.754,0,0,0,1.754-1.754v-3a16.774,16.774,0,0,0-9.919-15.441Zm-6.214-13.96a6.334,6.334,0,1,1-6.334,6.334A6.341,6.341,0,0,1,73.653,300.764Zm-28.76,0A6.334,6.334,0,1,1,38.56,307.1,6.341,6.341,0,0,1,44.894,300.764Zm0,16.176c6.962,0,12.626,5.932,12.626,13.224v1.243H32.268v-1.243C32.268,322.873,37.932,316.941,44.894,316.941Zm-28.76-16.176A6.334,6.334,0,1,1,9.8,307.1,6.341,6.341,0,0,1,16.134,300.764Zm-12.626,29.4c0-7.292,5.664-13.224,12.626-13.224s12.626,5.932,12.626,13.224v1.243H3.508Zm82.771,1.243H61.027v-1.243c0-7.292,5.664-13.224,12.626-13.224s12.626,5.932,12.626,13.224Z" transform="translate(0 -245.129)" fill="#fff"></path></g></svg>