<svg xmlns="http://www.w3.org/2000/svg" width="263.285" height="208.408" viewBox="0 0 263.285 208.408"><g id="Group_131407" data-name="Group 131407" transform="translate(-178.637 -4689.674)"><g id="Group_131349" data-name="Group 131349" transform="translate(-2090.482 -436.917)"><g id="Group_3948" data-name="Group 3948" transform="translate(2269.483 5222.835)"><path id="Path_5629" data-name="Path 5629" d="M242.61,74v8.716h3.165a5.033,5.033,0,0,0,3.64-1.32,4.358,4.358,0,0,0,1.38-3.295q0-4.1-4.9-4.1ZM261.13,99.357H253.7l-4.745-7.875a11.733,11.733,0,0,0-2.4-3.14,3.234,3.234,0,0,0-2-.708h-1.95V99.357h-6.449V69.1h10.61q10.8,0,10.8,8.2a8.07,8.07,0,0,1-1.806,5.291,9.57,9.57,0,0,1-4.971,3.108v.081c1.394.465,2.936,2.007,4.629,4.6Zm-28.795,0H225.3c-2.439-7.463-4.777-14.936-7.227-22.4a11.908,11.908,0,0,1-.465-2.64h-.176a11.44,11.44,0,0,1-.532,2.559c-2.447,7.487-4.685,15.006-7.09,22.483h-6.991L213.9,69.1h7.579Zm-29.295,0h-8.167l-9.159-13.222a9.126,9.126,0,0,1-.8-1.588h-.1V99.357h-6.445V69.1h6.445V83.4h.1a14.147,14.147,0,0,1,.859-1.619L194.448,69.1h7.692L191.318,83.537ZM156.884,74v8.716h3.168a5.038,5.038,0,0,0,3.64-1.32,4.371,4.371,0,0,0,1.38-3.295q0-4.1-4.907-4.1Zm18.523,25.356H167.98l-4.749-7.875a11.74,11.74,0,0,0-2.4-3.14,3.234,3.234,0,0,0-2-.708h-1.954V99.357h-6.445V69.1h10.606q10.8,0,10.8,8.2a8.051,8.051,0,0,1-1.806,5.291,9.56,9.56,0,0,1-4.967,3.108v.081c1.394.465,2.932,2.007,4.625,4.6ZM143.8,86.35q0,13.528-12.581,13.535-12.15,0-12.145-13.183V69.1h6.459V86.737q0,7.556,5.96,7.561,5.861,0,5.861-7.29V69.1H143.8ZM112.354,99.357h-6.6L92.933,79.781a23.544,23.544,0,0,1-1.44-2.461h-.1a47.269,47.269,0,0,1,.172,4.83V99.357H85.457V69.1H92.49l12.345,19.023q1.23,1.9,1.5,2.4h.1a28.335,28.335,0,0,1-.194-4.178V69.1h6.111ZM60.006,91.735a12.675,12.675,0,0,0,8.308,3.034,7.051,7.051,0,0,0,3.96-.912A2.726,2.726,0,0,0,73.6,91.521a3.294,3.294,0,0,0-1.053-2.32Q71.5,88.1,66.979,86.23q-7.091-3.01-7.086-8.748a7.614,7.614,0,0,1,3.214-6.555,14.124,14.124,0,0,1,8.508-2.334,20.778,20.778,0,0,1,7.438,1.155V75.8a12.379,12.379,0,0,0-7.125-2.077,7.272,7.272,0,0,0-3.816.877,2.633,2.633,0,0,0-1.426,2.33,3,3,0,0,0,.979,2.154,18.245,18.245,0,0,0,4.823,2.668q4.52,1.938,6.206,4.087a8,8,0,0,1,1.686,5.111A7.743,7.743,0,0,1,77.293,97.6q-3.078,2.292-8.765,2.288A18.87,18.87,0,0,1,60.006,98.2Zm-2.439,7.621H50.533c-2.447-7.487-4.77-14.908-7.227-22.4a11.884,11.884,0,0,1-.468-2.64h-.172a11.247,11.247,0,0,1-.532,2.559c-2.468,7.544-4.664,14.933-7.09,22.483H28.053L39.128,69.1h7.579ZM6.742,74.374V94.083h3.524a9.516,9.516,0,0,0,7.206-2.735,10.293,10.293,0,0,0,2.612-7.406,9.125,9.125,0,0,0-2.732-7.04,10.047,10.047,0,0,0-7.107-2.527ZM.3,99.357V69.1H10.752q16.11,0,16.115,14.749a14.751,14.751,0,0,1-4.516,11.261,16.291,16.291,0,0,1-11.638,4.245Z" transform="translate(-0.297 -68.594)" fill="#fff" fill-rule="evenodd"></path><path id="Path_5630" data-name="Path 5630" d="M190.43,110.847h-7.037c-2.447-7.484-4.766-14.908-7.227-22.4a11.988,11.988,0,0,1-.465-2.64h-.176a11.246,11.246,0,0,1-.532,2.559c-2.464,7.544-4.661,14.929-7.086,22.48h-6.995l11.074-30.252h7.579Zm-160.917,0H22.48c-2.447-7.484-4.77-14.908-7.227-22.4a11.987,11.987,0,0,1-.465-2.64h-.176a11.06,11.06,0,0,1-.532,2.559c-2.468,7.544-4.661,14.929-7.09,22.48H0L11.074,80.595h7.579Zm4.045-7.625a12.656,12.656,0,0,0,8.3,3.031,7.051,7.051,0,0,0,3.96-.912,2.721,2.721,0,0,0,1.327-2.334,3.3,3.3,0,0,0-1.056-2.32c-.7-.732-2.559-1.718-5.565-2.971q-7.086-3.01-7.083-8.744a7.624,7.624,0,0,1,3.21-6.555,14.119,14.119,0,0,1,8.5-2.33A20.861,20.861,0,0,1,52.6,81.239V87.29a12.366,12.366,0,0,0-7.125-2.07,7.268,7.268,0,0,0-3.812.873,2.633,2.633,0,0,0-1.426,2.33,3,3,0,0,0,.979,2.154,18.226,18.226,0,0,0,4.819,2.665q4.52,1.943,6.206,4.087a8,8,0,0,1,1.686,5.111,7.728,7.728,0,0,1-3.087,6.639q-3.078,2.292-8.762,2.288a18.845,18.845,0,0,1-8.519-1.679Zm25.665,0a12.656,12.656,0,0,0,8.3,3.031,7.051,7.051,0,0,0,3.96-.912,2.717,2.717,0,0,0,1.324-2.334,3.294,3.294,0,0,0-1.053-2.32c-.7-.732-2.559-1.718-5.565-2.971q-7.086-3.01-7.083-8.744a7.615,7.615,0,0,1,3.21-6.555,14.119,14.119,0,0,1,8.5-2.33,20.9,20.9,0,0,1,7.442,1.151V87.29a12.385,12.385,0,0,0-7.128-2.07,7.268,7.268,0,0,0-3.812.873,2.633,2.633,0,0,0-1.426,2.33,3,3,0,0,0,.979,2.154A18.226,18.226,0,0,0,71.7,93.243q4.52,1.943,6.206,4.087a8,8,0,0,1,1.686,5.111A7.728,7.728,0,0,1,76.5,109.08q-3.078,2.292-8.762,2.288a18.845,18.845,0,0,1-8.519-1.679Zm25.159-7.107a16.328,16.328,0,0,1,4.15-11.571A14.281,14.281,0,0,1,99.5,80.088,13.513,13.513,0,0,1,109.938,84.4a15.815,15.815,0,0,1,3.95,11.089q0,7.07-4.112,11.472a14.025,14.025,0,0,1-10.765,4.407A13.9,13.9,0,0,1,88.447,107.1a15.257,15.257,0,0,1-4.066-10.986m6.776-.352a11.582,11.582,0,0,0,2.13,7.22,6.933,6.933,0,0,0,5.836,2.8,7.074,7.074,0,0,0,5.9-2.686,11.344,11.344,0,0,0,2.105-7.213,12.225,12.225,0,0,0-2.045-7.47,6.8,6.8,0,0,0-5.78-2.742A7.118,7.118,0,0,0,93.34,88.48a11.561,11.561,0,0,0-2.183,7.283m51.035,13.986a19.614,19.614,0,0,1-8.61,1.619q-6.838,0-10.853-4.094t-4.013-10.905a15.984,15.984,0,0,1,4.488-11.722,15.485,15.485,0,0,1,11.564-4.559,20.713,20.713,0,0,1,7.424,1.151v6.227a13.479,13.479,0,0,0-6.952-1.8,9.265,9.265,0,0,0-7.093,2.827A10.434,10.434,0,0,0,125.5,95.9a10.108,10.108,0,0,0,2.517,7.163,8.859,8.859,0,0,0,6.815,2.714,14.209,14.209,0,0,0,7.364-1.954Zm13.38,1.091h-6.445V80.591h6.445Zm58.135-24.975h-8.631V110.84h-6.456V85.865h-8.614v-5.27h23.7Zm23.659,24.975H219.461V80.595h17.2v5.27H225.906v7.128h10v5.252h-10v7.322h11.462Zm5.185-7.618a12.663,12.663,0,0,0,8.3,3.031,7.051,7.051,0,0,0,3.96-.912,2.721,2.721,0,0,0,1.327-2.334,3.3,3.3,0,0,0-1.056-2.32c-.7-.732-2.559-1.718-5.562-2.971q-7.091-3.01-7.086-8.744a7.624,7.624,0,0,1,3.21-6.555,14.119,14.119,0,0,1,8.5-2.33,20.882,20.882,0,0,1,7.442,1.151V87.29a12.385,12.385,0,0,0-7.128-2.07,7.246,7.246,0,0,0-3.809.873,2.63,2.63,0,0,0-1.429,2.33,2.991,2.991,0,0,0,.982,2.154,18.122,18.122,0,0,0,4.816,2.665q4.52,1.943,6.206,4.087a8,8,0,0,1,1.686,5.111,7.734,7.734,0,0,1-3.084,6.639q-3.084,2.292-8.765,2.288a18.845,18.845,0,0,1-8.519-1.679Z" transform="translate(0 -38.09)" fill="#fff"></path></g><text id="ARCHITECTURE_INTERIORS_LANDSCAPE" data-name="ARCHITECTURE | INTERIORS | LANDSCAPE" transform="translate(2270 5319)" fill="#fff" font-size="13" font-family="CenturyGothic, Century Gothic"><tspan x="0.235" y="13">ARCHITECTURE | INTERIORS | LANDSCAPE</tspan></text></g><g id="Group_131350" data-name="Group 131350" transform="translate(178.637 4689.674)"><g id="Group_3907" data-name="Group 3907" transform="translate(0 0)"><g id="Group_3908" data-name="Group 3908"><path id="Path_5628" data-name="Path 5628" d="M19.911,13.807H40.4c10.355,0,17.467,7.3,17.467,16.218v.783c0,9.35-5.115,17-17,17H19.911V42.924H40.3c7.968,0,12.116-5.42,12.116-12.045v-.554A11.558,11.558,0,0,0,40.853,18.835H24.646V38.827H19.911ZM9.395,2.395H66.22V59.22H9.395ZM7,0H68.615V61.615H7Z" transform="translate(-7)" fill="#fff" fill-rule="evenodd"></path></g></g></g></g></svg>