<svg xmlns="http://www.w3.org/2000/svg" width="139.511" height="107.335" viewBox="0 0 139.511 107.335"><g id="Group_131437" data-name="Group 131437" transform="translate(-125.244 -517.416)"><g id="Group_131425" data-name="Group 131425" transform="translate(-2173.757 -4766.38)"><g id="Group_131349" data-name="Group 131349" transform="translate(2299 5331.865)"><g id="Group_3948" data-name="Group 3948" transform="translate(0 0)"><path id="Path_5629" data-name="Path 5629" d="M128.874,71.463v4.625h1.679a2.67,2.67,0,0,0,1.931-.7,2.313,2.313,0,0,0,.732-1.748q0-2.174-2.6-2.176ZM138.7,84.917H134.76l-2.518-4.178a6.225,6.225,0,0,0-1.274-1.666,1.716,1.716,0,0,0-1.059-.375h-1.035v6.22h-3.422V68.863h5.63q5.73,0,5.731,4.352a4.282,4.282,0,0,1-.958,2.807,5.078,5.078,0,0,1-2.637,1.649v.043a5.708,5.708,0,0,1,2.456,2.443Zm-15.279,0H119.69c-1.294-3.96-2.535-7.925-3.835-11.887a6.318,6.318,0,0,1-.247-1.4h-.093a6.07,6.07,0,0,1-.282,1.358c-1.3,3.973-2.486,7.963-3.762,11.93h-3.71l5.876-16.054h4.022Zm-15.544,0h-4.333L98.683,77.9a4.842,4.842,0,0,1-.424-.842h-.054v7.858h-3.42V68.863h3.42v7.585h.054a7.506,7.506,0,0,1,.456-.859l4.6-6.726H107.4l-5.742,7.66ZM83.386,71.463v4.625h1.681a2.673,2.673,0,0,0,1.931-.7,2.319,2.319,0,0,0,.732-1.748q0-2.174-2.6-2.176Zm9.829,13.454H89.273l-2.52-4.178a6.23,6.23,0,0,0-1.272-1.666,1.716,1.716,0,0,0-1.059-.375H83.386v6.22h-3.42V68.863h5.628q5.732,0,5.731,4.352a4.272,4.272,0,0,1-.958,2.807,5.073,5.073,0,0,1-2.636,1.649v.043a5.706,5.706,0,0,1,2.454,2.443Zm-16.77-6.9q0,7.178-6.676,7.182-6.447,0-6.444-7V68.863h3.428v9.358q0,4.009,3.162,4.012,3.11,0,3.11-3.868v-9.5h3.42Zm-16.688,6.9h-3.5l-6.8-10.387a12.494,12.494,0,0,1-.764-1.306h-.052a25.083,25.083,0,0,1,.092,2.563v9.13H45.485V68.863h3.732l6.551,10.094q.653,1.006.8,1.276h.052a15.035,15.035,0,0,1-.1-2.217V68.863h3.243ZM31.98,80.873a6.726,6.726,0,0,0,4.408,1.61,3.741,3.741,0,0,0,2.1-.484,1.447,1.447,0,0,0,.7-1.24,1.748,1.748,0,0,0-.558-1.231,10.48,10.48,0,0,0-2.955-1.576q-3.763-1.6-3.76-4.642a4.04,4.04,0,0,1,1.705-3.478,7.494,7.494,0,0,1,4.515-1.238,11.026,11.026,0,0,1,3.947.613v3.213a6.568,6.568,0,0,0-3.781-1.1,3.859,3.859,0,0,0-2.025.465,1.4,1.4,0,0,0-.756,1.237,1.592,1.592,0,0,0,.519,1.143A9.682,9.682,0,0,0,38.6,75.578,8.38,8.38,0,0,1,41.9,77.747a4.244,4.244,0,0,1,.895,2.712,4.109,4.109,0,0,1-1.638,3.525A7.682,7.682,0,0,1,36.5,85.2,10.013,10.013,0,0,1,31.98,84.3Zm-1.294,4.044H26.953c-1.3-3.973-2.531-7.91-3.835-11.887a6.306,6.306,0,0,1-.248-1.4h-.092a5.968,5.968,0,0,1-.282,1.358c-1.309,4-2.475,7.924-3.762,11.93h-3.71L20.9,68.863h4.022ZM3.717,71.661V82.119h1.87A5.049,5.049,0,0,0,9.41,80.668a5.462,5.462,0,0,0,1.386-3.93A4.842,4.842,0,0,0,9.347,73a5.331,5.331,0,0,0-3.771-1.341ZM.3,84.917V68.863H5.845q8.548,0,8.551,7.826A7.827,7.827,0,0,1,12,82.665a8.645,8.645,0,0,1-6.175,2.253Z" transform="translate(-0.297 -68.594)" fill="#fff" fill-rule="evenodd"></path><path id="Path_5630" data-name="Path 5630" d="M101.046,96.409H97.312c-1.3-3.971-2.529-7.91-3.835-11.885a6.361,6.361,0,0,1-.247-1.4h-.093a5.967,5.967,0,0,1-.282,1.358c-1.308,4-2.473,7.922-3.76,11.928H85.384l5.876-16.053h4.022Zm-85.386,0H11.928C10.63,92.438,9.4,88.5,8.093,84.524a6.36,6.36,0,0,1-.247-1.4H7.754a5.869,5.869,0,0,1-.282,1.358C6.162,88.484,5,92.4,3.71,96.409H0L5.876,80.357H9.9Zm2.146-4.046a6.715,6.715,0,0,0,4.406,1.608,3.741,3.741,0,0,0,2.1-.484,1.444,1.444,0,0,0,.7-1.238,1.75,1.75,0,0,0-.56-1.231A10.458,10.458,0,0,0,21.5,89.442q-3.76-1.6-3.758-4.64a4.045,4.045,0,0,1,1.7-3.478,7.492,7.492,0,0,1,4.513-1.237,11.07,11.07,0,0,1,3.947.611V83.91a6.562,6.562,0,0,0-3.781-1.1,3.857,3.857,0,0,0-2.023.463,1.4,1.4,0,0,0-.756,1.237,1.592,1.592,0,0,0,.519,1.143,9.671,9.671,0,0,0,2.557,1.414,8.4,8.4,0,0,1,3.293,2.169,4.244,4.244,0,0,1,.895,2.712,4.1,4.1,0,0,1-1.638,3.523,7.679,7.679,0,0,1-4.649,1.214,10,10,0,0,1-4.52-.891Zm13.619,0a6.715,6.715,0,0,0,4.406,1.608,3.741,3.741,0,0,0,2.1-.484,1.442,1.442,0,0,0,.7-1.238,1.748,1.748,0,0,0-.558-1.231,10.458,10.458,0,0,0-2.953-1.577q-3.76-1.6-3.758-4.64a4.041,4.041,0,0,1,1.7-3.478,7.492,7.492,0,0,1,4.513-1.237,11.088,11.088,0,0,1,3.949.611V83.91a6.572,6.572,0,0,0-3.782-1.1,3.857,3.857,0,0,0-2.023.463,1.4,1.4,0,0,0-.756,1.237,1.592,1.592,0,0,0,.519,1.143,9.671,9.671,0,0,0,2.557,1.414,8.4,8.4,0,0,1,3.293,2.169,4.244,4.244,0,0,1,.895,2.712,4.1,4.1,0,0,1-1.638,3.523,7.679,7.679,0,0,1-4.649,1.214,10,10,0,0,1-4.52-.891Zm13.35-3.771a8.664,8.664,0,0,1,2.2-6.14A7.578,7.578,0,0,1,52.8,80.088a7.17,7.17,0,0,1,5.54,2.288,8.392,8.392,0,0,1,2.1,5.884,8.563,8.563,0,0,1-2.182,6.087,7.442,7.442,0,0,1-5.712,2.339,7.377,7.377,0,0,1-5.605-2.264,8.1,8.1,0,0,1-2.157-5.83m3.6-.187a6.145,6.145,0,0,0,1.13,3.831,3.679,3.679,0,0,0,3.1,1.485A3.754,3.754,0,0,0,55.728,92.3a6.019,6.019,0,0,0,1.117-3.827,6.487,6.487,0,0,0-1.085-3.964,3.608,3.608,0,0,0-3.067-1.455,3.777,3.777,0,0,0-3.164,1.491,6.134,6.134,0,0,0-1.158,3.865m27.08,7.421a10.408,10.408,0,0,1-4.569.859,7.687,7.687,0,0,1-5.759-2.172,7.907,7.907,0,0,1-2.129-5.787,8.482,8.482,0,0,1,2.382-6.22,8.217,8.217,0,0,1,6.136-2.419,10.991,10.991,0,0,1,3.939.611V84a7.152,7.152,0,0,0-3.689-.953A4.916,4.916,0,0,0,68,84.55a5.537,5.537,0,0,0-1.407,3.93,5.363,5.363,0,0,0,1.336,3.8,4.7,4.7,0,0,0,3.616,1.44,7.54,7.54,0,0,0,3.908-1.037Zm7.1.579h-3.42V80.355h3.42ZM113.4,83.153h-4.58V96.406h-3.426V83.153h-4.571v-2.8H113.4Zm12.554,13.253h-9.5V80.357h9.128v2.8h-5.708v3.782h5.3v2.787h-5.3v3.885h6.082Zm2.751-4.042a6.719,6.719,0,0,0,4.406,1.608,3.741,3.741,0,0,0,2.1-.484,1.444,1.444,0,0,0,.7-1.238,1.75,1.75,0,0,0-.56-1.231,10.467,10.467,0,0,0-2.951-1.577q-3.763-1.6-3.76-4.64a4.045,4.045,0,0,1,1.7-3.478,7.492,7.492,0,0,1,4.513-1.237,11.08,11.08,0,0,1,3.949.611V83.91a6.572,6.572,0,0,0-3.782-1.1,3.845,3.845,0,0,0-2.021.463,1.4,1.4,0,0,0-.758,1.237,1.587,1.587,0,0,0,.521,1.143,9.616,9.616,0,0,0,2.555,1.414,8.4,8.4,0,0,1,3.293,2.169,4.244,4.244,0,0,1,.895,2.712,4.1,4.1,0,0,1-1.636,3.523,7.689,7.689,0,0,1-4.651,1.214,10,10,0,0,1-4.52-.891Z" transform="translate(0 -57.803)" fill="#fff"></path></g><path id="Path_135586" data-name="Path 135586" d="M3.008,3.552,5.319,8.507H4.784L4,6.877H1.87L1.1,8.507H.546L2.887,3.552ZM2.946,4.605,2.1,6.4H3.791ZM6.114,3.552H7.1a5.978,5.978,0,0,1,1.118.067,1.276,1.276,0,0,1,.717.433,1.236,1.236,0,0,1,.276.818,1.322,1.322,0,0,1-.19.712,1.187,1.187,0,0,1-.544.464,2.5,2.5,0,0,1-.977.16l1.782,2.3H8.671l-1.782-2.3h-.28v2.3h-.5Zm.5.485V5.721l.854.007A2.122,2.122,0,0,0,8.2,5.634a.764.764,0,0,0,.371-.3A.838.838,0,0,0,8.7,4.869a.8.8,0,0,0-.135-.453.752.752,0,0,0-.354-.291,2.153,2.153,0,0,0-.729-.088Zm8.279.434-.391.3a2.136,2.136,0,0,0-.776-.638,2.272,2.272,0,0,0-1-.217,2.2,2.2,0,0,0-1.1.285,2.043,2.043,0,0,0-.783.765,2.115,2.115,0,0,0-.278,1.08,2.027,2.027,0,0,0,.621,1.512,2.154,2.154,0,0,0,1.568.606A2.2,2.2,0,0,0,14.5,7.348l.391.3a2.5,2.5,0,0,1-.925.729,2.9,2.9,0,0,1-1.238.258,2.575,2.575,0,0,1-2.051-.866A2.612,2.612,0,0,1,10.044,6a2.454,2.454,0,0,1,.763-1.831,2.63,2.63,0,0,1,1.911-.743,2.8,2.8,0,0,1,1.253.275A2.432,2.432,0,0,1,14.888,4.472Zm.987-.92h.5V5.631h2.523V3.552h.5V8.507h-.5V6.116H16.37V8.507h-.5Zm4.648,0h.5V8.507h-.5Zm1.138.485V3.552h2.715v.485h-1.1v4.47h-.505V4.037Zm3.432-.485h2.839v.485H25.589V5.59h2.324v.485H25.589V8.022h2.324v.485H25.094Zm8.309.92-.391.3a2.136,2.136,0,0,0-.776-.638,2.272,2.272,0,0,0-1-.217,2.2,2.2,0,0,0-1.1.285,2.043,2.043,0,0,0-.783.765,2.115,2.115,0,0,0-.278,1.08A2.027,2.027,0,0,0,29.7,7.557a2.154,2.154,0,0,0,1.568.606,2.2,2.2,0,0,0,1.741-.815l.391.3a2.5,2.5,0,0,1-.925.729,2.9,2.9,0,0,1-1.238.258,2.575,2.575,0,0,1-2.051-.866A2.612,2.612,0,0,1,28.56,6a2.454,2.454,0,0,1,.763-1.831,2.63,2.63,0,0,1,1.911-.743,2.8,2.8,0,0,1,1.253.275A2.432,2.432,0,0,1,33.4,4.472Zm.5-.434V3.552H36.62v.485h-1.1v4.47H35.01V4.037Zm3.446-.485h.5V6.543a6.188,6.188,0,0,0,.02.664,1.1,1.1,0,0,0,.172.49,1.013,1.013,0,0,0,.414.33,1.3,1.3,0,0,0,.562.133,1.11,1.11,0,0,0,.472-.1,1.049,1.049,0,0,0,.377-.29,1.182,1.182,0,0,0,.222-.448,3.708,3.708,0,0,0,.051-.775V3.552h.5V6.543a3.642,3.642,0,0,1-.13,1.073,1.459,1.459,0,0,1-.519.712,1.485,1.485,0,0,1-.941.3,1.8,1.8,0,0,1-1.027-.286,1.379,1.379,0,0,1-.573-.758,4.015,4.015,0,0,1-.091-1.044Zm4.527,0h.987a5.978,5.978,0,0,1,1.118.067,1.276,1.276,0,0,1,.717.433,1.236,1.236,0,0,1,.276.818,1.322,1.322,0,0,1-.19.712,1.187,1.187,0,0,1-.544.464,2.5,2.5,0,0,1-.977.16l1.782,2.3h-.613l-1.782-2.3h-.28v2.3h-.5Zm.5.485V5.721l.854.007a2.122,2.122,0,0,0,.734-.094.764.764,0,0,0,.371-.3.838.838,0,0,0,.133-.463.8.8,0,0,0-.135-.453.752.752,0,0,0-.354-.291,2.153,2.153,0,0,0-.729-.088Zm3.668-.485H48.88v.485H46.536V5.59H48.86v.485H46.536V8.022H48.86v.485H46.041Zm7.077-.125H53.6v6.42h-.482Zm5,.125h.5V8.507h-.5Zm1.634,4.955V3.552h.108l3.3,3.8v-3.8h.488V8.507h-.111L60.264,4.755V8.507Zm4.608-4.47V3.552h2.715v.485h-1.1v4.47h-.505V4.037Zm3.432-.485h2.839v.485H68.288V5.59h2.324v.485H68.288V8.022h2.324v.485H67.792Zm3.722,0H72.5a5.978,5.978,0,0,1,1.118.067,1.276,1.276,0,0,1,.717.433,1.236,1.236,0,0,1,.276.818,1.322,1.322,0,0,1-.19.712,1.187,1.187,0,0,1-.544.464,2.5,2.5,0,0,1-.977.16l1.782,2.3h-.613l-1.782-2.3h-.28v2.3h-.5Zm.5.485V5.721l.854.007a2.122,2.122,0,0,0,.734-.094.764.764,0,0,0,.371-.3.838.838,0,0,0,.133-.463.8.8,0,0,0-.135-.453.752.752,0,0,0-.354-.291,2.153,2.153,0,0,0-.729-.088ZM75.6,3.552h.5V8.507h-.5Zm3.99-.125a2.571,2.571,0,0,1,1.884.751,2.5,2.5,0,0,1,.758,1.849,2.622,2.622,0,0,1-4.462,1.849,2.48,2.48,0,0,1-.758-1.826,2.64,2.64,0,0,1,.345-1.324,2.552,2.552,0,0,1,2.233-1.3Zm.022.482A2.115,2.115,0,0,0,77.8,4.968a2.146,2.146,0,0,0-.277,1.082,2.084,2.084,0,0,0,2.088,2.1,2.12,2.12,0,0,0,1.068-.28,2,2,0,0,0,.766-.765,2.15,2.15,0,0,0,.275-1.079,2.1,2.1,0,0,0-.275-1.067,2.053,2.053,0,0,0-.774-.764A2.1,2.1,0,0,0,79.615,3.909Zm3.641-.357h.987a5.977,5.977,0,0,1,1.118.067,1.276,1.276,0,0,1,.717.433,1.236,1.236,0,0,1,.276.818,1.322,1.322,0,0,1-.19.712,1.187,1.187,0,0,1-.544.464,2.5,2.5,0,0,1-.977.16l1.782,2.3h-.613l-1.782-2.3h-.28v2.3h-.5Zm.5.485V5.721l.854.007a2.122,2.122,0,0,0,.734-.094.764.764,0,0,0,.371-.3.838.838,0,0,0,.133-.463.8.8,0,0,0-.135-.453.752.752,0,0,0-.354-.291,2.153,2.153,0,0,0-.729-.088ZM86.9,7.584l.421-.253q.445.818,1.027.818a.984.984,0,0,0,.468-.116.822.822,0,0,0,.333-.312.806.806,0,0,0,.115-.414A.84.84,0,0,0,89.1,6.82a4.036,4.036,0,0,0-.849-.795,4.339,4.339,0,0,1-.771-.677,1.238,1.238,0,0,1-.263-.758A1.15,1.15,0,0,1,87.372,4a1.1,1.1,0,0,1,.436-.419,1.257,1.257,0,0,1,.611-.153,1.3,1.3,0,0,1,.655.173,2.247,2.247,0,0,1,.645.638l-.4.307a1.939,1.939,0,0,0-.477-.488.821.821,0,0,0-.429-.118.68.68,0,0,0-.49.182.6.6,0,0,0-.19.448.763.763,0,0,0,.067.313,1.156,1.156,0,0,0,.246.33q.1.094.64.5a3.6,3.6,0,0,1,.882.845A1.362,1.362,0,0,1,89.8,7.3a1.263,1.263,0,0,1-.409.936,1.375,1.375,0,0,1-1,.4,1.46,1.46,0,0,1-.818-.241A2.2,2.2,0,0,1,86.9,7.584Zm7.329-4.156h.482v6.42h-.482Zm5.073.125h.5V8.029h1.906v.478h-2.4Zm5.211,0,2.311,4.955h-.535l-.779-1.63h-2.134l-.772,1.63h-.552l2.341-4.955Zm-.063,1.053L103.6,6.4H105.3Zm3.144,3.9V3.552h.108l3.3,3.8v-3.8h.488V8.507h-.111L108.11,4.755V8.507Zm5.1,0V3.552h1.027a5.245,5.245,0,0,1,1.613.179,2.156,2.156,0,0,1,1.127.876,2.661,2.661,0,0,1,.406,1.485,2.605,2.605,0,0,1-.322,1.31,2.062,2.062,0,0,1-.835.835,3.146,3.146,0,0,1-1.44.269Zm.475-.468h.573a5.337,5.337,0,0,0,1.425-.128,1.643,1.643,0,0,0,.879-.655,2.015,2.015,0,0,0,.32-1.156,2.12,2.12,0,0,0-.347-1.225,1.747,1.747,0,0,0-.967-.7,5.845,5.845,0,0,0-1.533-.141h-.35Zm4.146-.455.421-.253q.445.818,1.027.818a.984.984,0,0,0,.468-.116.822.822,0,0,0,.333-.312.806.806,0,0,0,.115-.414.84.84,0,0,0-.168-.488,4.036,4.036,0,0,0-.849-.795,4.339,4.339,0,0,1-.771-.677,1.238,1.238,0,0,1-.263-.758A1.15,1.15,0,0,1,117.787,4a1.1,1.1,0,0,1,.436-.419,1.257,1.257,0,0,1,.611-.153,1.3,1.3,0,0,1,.655.173,2.247,2.247,0,0,1,.645.638l-.4.307a1.939,1.939,0,0,0-.477-.488.821.821,0,0,0-.429-.118.68.68,0,0,0-.49.182.6.6,0,0,0-.19.448.763.763,0,0,0,.067.313,1.156,1.156,0,0,0,.246.33q.1.094.64.5a3.6,3.6,0,0,1,.882.845,1.362,1.362,0,0,1,.239.744,1.263,1.263,0,0,1-.409.936,1.375,1.375,0,0,1-1,.4A1.46,1.46,0,0,1,118,8.391,2.2,2.2,0,0,1,117.319,7.584Zm8.562-3.112-.391.3a2.136,2.136,0,0,0-.776-.638,2.272,2.272,0,0,0-1-.217,2.2,2.2,0,0,0-1.1.285,2.043,2.043,0,0,0-.783.765,2.115,2.115,0,0,0-.278,1.08,2.027,2.027,0,0,0,.621,1.512,2.154,2.154,0,0,0,1.568.606,2.2,2.2,0,0,0,1.741-.815l.391.3a2.5,2.5,0,0,1-.925.729,2.9,2.9,0,0,1-1.238.258,2.575,2.575,0,0,1-2.051-.866A2.612,2.612,0,0,1,121.037,6,2.454,2.454,0,0,1,121.8,4.17a2.63,2.63,0,0,1,1.911-.743,2.8,2.8,0,0,1,1.253.275A2.432,2.432,0,0,1,125.881,4.472Zm3.018-.92,2.311,4.955h-.535l-.779-1.63h-2.134l-.772,1.63h-.552l2.341-4.955Zm-.063,1.053L127.987,6.4h1.694Zm3.138-1.053h.987a5.682,5.682,0,0,1,1.145.074,1.271,1.271,0,0,1,.694.429,1.237,1.237,0,0,1,.269.817,1.249,1.249,0,0,1-.263.817,1.293,1.293,0,0,1-.724.433,6.4,6.4,0,0,1-1.26.081h-.354v2.3h-.5Zm.5.485V5.718l.839.01a2.194,2.194,0,0,0,.744-.092.763.763,0,0,0,.37-.3.828.828,0,0,0,.135-.462.817.817,0,0,0-.135-.455.743.743,0,0,0-.355-.294,2.138,2.138,0,0,0-.722-.087Zm3.594-.485H138.9v.485h-2.344V5.59h2.324v.485h-2.324V8.022h2.324v.485h-2.819Z" transform="translate(0.018 49.418)" fill="#fff"></path></g><g id="Group_131350" data-name="Group 131350" transform="translate(2352.409 5283.796)"><g id="Group_3907" data-name="Group 3907" transform="translate(0 0)"><g id="Group_3908" data-name="Group 3908"><path id="Path_5628" data-name="Path 5628" d="M13.851,7.326h10.87c5.495,0,9.268,3.873,9.268,8.606v.415c0,4.961-2.714,9.021-9.021,9.021H13.851V22.776H24.667A6.024,6.024,0,0,0,31.1,16.385v-.294a6.133,6.133,0,0,0-6.133-6.1h-8.6V20.6H13.851ZM8.271,1.271H38.423V31.423H8.271ZM7,0H39.694V32.694H7Z" transform="translate(-7)" fill="#fff" fill-rule="evenodd"></path></g></g></g></g></g></svg>